<svg xmlns="http://www.w3.org/2000/svg" viewBox="0 0 88.5 109.39"><title>marketking-icon-gray2</title><path d="M18.66,18.78H50.27q18.48,0,27.43,5.48t9,17.08a21.62,21.62,0,0,1-3.9,13,17.44,17.44,0,0,1-10.3,6.94v.62q8.43,2.24,12.22,7.44T88.5,82.85q0,12.35-9.27,19.44T54,109.39H18.66ZM43.14,53.55h7.38c3.51,0,6.22-.72,8.15-2.17a7.56,7.56,0,0,0,2.89-6.44q0-7.63-11.53-7.63H43.14Zm0,17.92v19h8.62q11.48,0,11.47-9.67a8.33,8.33,0,0,0-3.07-7q-3.06-2.42-8.9-2.41Z" fill="#303030"/><polygon points="18.84 48.51 18.66 66.85 53.19 18.81 43.14 18.81 18.84 48.51" fill="#0d0f11"/><polygon points="35.94 17.54 18.4 18.4 17.54 35.94 0 36.8 16.76 53.56 21.23 49.09 30.69 39.62 35.16 35.16 39.62 30.69 49.09 21.23 53.56 16.76 36.8 0 35.94 17.54" fill="#ffcd34"/><path d="M13.75,42.83A55.72,55.72,0,0,1,0,36.83L16.76,53.58,27.49,42.86a26,26,0,0,1-13.74,0" fill="#e2b15a"/></svg>