<svg width="20px" height="20px" xmlns="http://www.w3.org/2000/svg" xmlns:xlink="http://www.w3.org/1999/xlink" version="1.1" id="Capa_1" x="0px" y="0px" viewBox="0 0 512 512" style="enable-background:new 0 0 512 512;z-index:999999999999" xml:space="preserve">
<circle style="fill:#005C83;" cx="256" cy="256" r="256"/>
<path style="fill:#00263F;" d="M512,256c0-4.837-0.147-9.64-0.412-14.412L423,153l-46.282,83.718L256,116l6.433,208.433L91,153v217  l140.859,140.859C239.808,511.603,247.857,512,256,512C397.385,512,512,397.385,512,256z"/>
<polygon style="fill:#FFDC00;" points="423,370 91,370 91,153 256,340.115 423,153 "/>
<polygon style="fill:#FFC000;" points="423,153 256,340.115 256,370 423,370 "/>
<polygon style="fill:#FFB344;" points="91,370 256,116 423,370 "/>
<polygon style="fill:#FF9451;" points="256,116 256,370 423,370 "/>
<g>
</g>
<g>
</g>
<g>
</g>
<g>
</g>
<g>
</g>
<g>
</g>
<g>
</g>
<g>
</g>
<g>
</g>
<g>
</g>
<g>
</g>
<g>
</g>
<g>
</g>
<g>
</g>
<g>
</g>
</svg>