<?xml version="1.0" encoding="utf-8"?>
<!-- Generator: Adobe Illustrator 25.0.0, SVG Export Plug-In . SVG Version: 6.00 Build 0)  -->
<svg version="1.1" id="Layer_1" xmlns="http://www.w3.org/2000/svg" xmlns:xlink="http://www.w3.org/1999/xlink" x="0px" y="0px"
	 viewBox="0 0 125 109.4" style="enable-background:new 0 0 125 109.4;" xml:space="preserve">
<style type="text/css">
	.st0{fill:#444444;}
	.st1{display:none;fill:#FFFFFF;}
	.st2{fill:#FFFFFF;}
	.st3{font-family:'Cochin-Bold';}
	.st4{font-size:119.7641px;}
	.st5{fill:#0D0F11;}
	.st6{fill:#FFCD34;}
	.st7{fill:#E2B15A;}
</style>
<rect x="-655.8" y="-236.4" class="st0" width="530" height="358"/>
<path class="st1" d="M18.7,18.8h31.6c12.3,0,21.5,1.8,27.4,5.5s9,9.3,9,17.1c0.1,4.6-1.2,9.2-3.9,13c-2.5,3.5-6.1,6-10.3,6.9v0.6
	c5.6,1.5,9.7,4,12.2,7.4s3.8,8,3.8,13.5c0,8.2-3.1,14.7-9.3,19.4s-14.6,7.1-25.3,7.1H18.7V18.8z M43.1,53.6h7.4
	c3.5,0,6.2-0.7,8.1-2.2c2-1.5,3.1-3.9,2.9-6.4c0-5.1-3.8-7.6-11.5-7.6h-6.9V53.6z M43.1,71.5v19h8.6c7.6,0,11.5-3.2,11.5-9.7
	c0.2-2.7-1-5.3-3.1-7c-2-1.6-5-2.4-8.9-2.4L43.1,71.5z"/>
<text transform="matrix(1 0 0 1 10.745 104.7559)" class="st2 st3 st4">M</text>
<polygon class="st5" points="18.8,54.5 18.7,72.8 53.2,24.8 43.1,24.8 "/>
<polygon class="st6" points="35.9,24.5 18.4,25.4 17.5,42.9 0,43.8 16.8,60.6 21.2,56.1 30.7,46.6 35.2,42.2 39.6,37.7 49.1,28.2 
	53.6,23.8 36.8,7 "/>
<path class="st7" d="M13.8,49.8c-4.8-1.4-9.5-3.4-13.8-6l16.8,16.8l10.7-10.7C23,51.1,18.2,51.1,13.8,49.8"/>
</svg>
