<svg xmlns="http://www.w3.org/2000/svg" viewBox="0 0 88.46 109.41"><title>test2</title><path d="M307.06,680.7h31.61q18.48,0,27.43,5.48t9,17.08a21.64,21.64,0,0,1-3.9,13,17.46,17.46,0,0,1-10.3,6.94v.62q8.43,2.24,12.22,7.44t3.78,13.51q0,12.35-9.27,19.44t-25.26,7.1H307.06Zm24.48,34.77h7.38q5.26,0,8.15-2.17a7.55,7.55,0,0,0,2.89-6.44q0-7.64-11.53-7.63h-6.89Zm0,17.92v19h8.62q11.47,0,11.47-9.67a8.33,8.33,0,0,0-3.07-7q-3.06-2.41-8.9-2.41Z" transform="translate(-288.4 -661.92)" fill="#16145f"/><polygon points="18.84 48.51 18.66 66.85 53.19 18.81 43.14 18.81 18.84 48.51" fill="#0d0f11"/><polygon points="35.94 17.54 18.4 18.4 17.54 35.94 0 36.8 16.76 53.56 21.23 49.09 30.69 39.62 35.16 35.16 39.62 30.69 49.09 21.23 53.56 16.76 36.8 0 35.94 17.54" fill="#ffcd34"/><path d="M302.15,704.75a55.83,55.83,0,0,1-13.75-6l16.76,16.75,10.73-10.72a26,26,0,0,1-13.74,0" transform="translate(-288.4 -661.92)" fill="#e2b15a"/></svg>